<?xml version="1.0" encoding="UTF-8" standalone="no"?>
<!DOCTYPE svg PUBLIC "-//W3C//DTD SVG 1.1//EN" "http://www.w3.org/Graphics/SVG/1.1/DTD/svg11.dtd">
<svg width="100%" height="100%" viewBox="0 0 483 538" version="1.1" xmlns="http://www.w3.org/2000/svg" xmlns:xlink="http://www.w3.org/1999/xlink" xml:space="preserve" xmlns:serif="http://www.serif.com/" style="fill-rule:evenodd;clip-rule:evenodd;stroke-linejoin:round;stroke-miterlimit:2;">
    <g transform="matrix(1,0,0,1,-705,-218)">
        <g transform="matrix(1.333333,0,0,1.333333,0.296875,218.528646)">
            <path d="M730.387,85.438C742.223,85.438 752.855,80.688 760.586,72.957L761.551,71.988C769.363,63.695 780.957,61.359 791.344,66.031C807.852,73.438 822.668,83.828 835.312,96.391C839.902,100.98 844.25,105.973 848.195,111.125C846.426,114.348 845.379,118.051 845.379,121.996C845.379,128.195 847.875,133.754 851.902,137.781C855.926,141.805 861.562,144.301 867.684,144.301C873.883,144.301 879.441,141.805 883.465,137.781C887.492,133.754 889.988,128.117 889.988,121.996C889.988,115.797 887.492,110.238 883.465,106.215C879.441,102.188 873.805,99.691 867.684,99.691C866.879,99.691 865.992,99.77 865.188,99.852C860.438,93.57 855.281,87.613 849.645,82.055C831.848,64.258 810.027,50.328 785.629,41.875C778.219,39.297 772.824,34.223 769.926,26.895C767.75,21.5 764.531,16.59 760.422,12.562C752.855,4.75 742.223,0 730.387,0C718.551,0 707.922,4.75 700.191,12.48C696.164,16.508 692.863,21.418 690.688,26.816C687.789,34.062 682.395,39.215 674.984,41.793C650.668,50.246 628.844,64.098 610.969,81.977C593.172,99.77 579.242,121.594 570.785,145.992C568.207,153.402 563.137,158.797 555.809,161.695C550.414,163.871 545.5,167.09 541.473,171.199C533.824,178.848 529.074,189.477 529.074,201.312C529.074,213.152 533.824,223.781 541.555,231.512C545.582,235.539 550.492,238.84 555.887,241.012C563.137,243.914 568.289,249.309 570.867,256.715C579.32,281.035 593.172,302.855 611.047,320.734C628.844,338.531 650.668,352.461 675.066,360.914C682.473,363.492 687.871,368.566 690.77,375.895C692.941,381.289 696.164,386.199 700.27,390.227C708,397.957 718.711,402.707 730.469,402.707C742.305,402.707 752.934,397.957 760.664,390.227C764.691,386.199 767.992,381.289 770.168,375.895C773.066,368.645 778.461,363.492 785.871,360.914C810.188,352.461 832.012,338.609 849.887,320.734C855.445,315.176 860.676,309.219 865.43,302.938C866.234,303.02 867.121,303.098 867.926,303.098C874.125,303.098 879.684,300.602 883.707,296.574C887.734,292.551 890.23,286.914 890.23,280.793C890.23,274.594 887.734,269.035 883.707,265.012C879.684,260.984 874.047,258.488 867.926,258.488C861.723,258.488 856.168,260.984 852.141,265.012C848.117,269.035 845.621,274.672 845.621,280.793C845.621,284.738 846.668,288.441 848.438,291.664C844.492,296.898 840.145,301.809 835.555,306.398C822.91,319.043 808.094,329.352 791.586,336.758C781.199,341.43 769.602,339.094 761.793,330.801L760.824,329.832C753.094,322.102 742.387,317.352 730.629,317.352C718.793,317.352 708.164,322.102 700.434,329.832L699.465,330.879C691.656,339.176 680.059,341.508 669.672,336.84C653.164,329.43 638.348,319.043 625.703,306.48C613.062,293.84 602.754,279.02 595.348,262.512C590.676,252.125 593.012,240.531 601.305,232.719L602.27,231.754C603.238,230.785 604.203,229.738 605.008,228.691C614.027,217.742 626.348,211.945 640.52,211.945L667.98,211.945C681.508,211.945 693.105,217.098 702.203,227.164C709.211,234.895 719.355,239.805 730.547,239.805C751.645,239.805 768.797,222.734 768.797,201.555C768.797,180.379 751.727,163.305 730.547,163.305C719.273,163.305 709.129,168.137 702.203,175.949C693.184,186.016 681.508,191.168 667.98,191.168L640.52,191.168C626.27,191.168 614.027,185.371 605.008,174.418C604.121,173.371 603.238,172.324 602.27,171.359L601.305,170.391C593.012,162.582 590.676,150.984 595.348,140.598C602.754,124.09 613.141,109.273 625.703,96.629C638.348,83.988 653.164,73.68 669.672,66.273C680.059,61.602 691.656,63.938 699.465,72.23L700.434,73.199C707.922,80.688 718.551,85.438 730.387,85.438ZM652.84,265.414C650.91,263.078 650.102,260.258 650.668,257.199C651.23,254.141 652.922,251.805 655.578,250.273L655.738,250.191C660.008,247.695 665.402,248.664 668.543,252.527C670.152,254.461 671.844,256.312 673.617,258.164C688.109,272.66 708.242,281.68 730.387,281.68C752.531,281.68 772.582,272.66 787.156,258.164L788.688,256.555C787.238,253.574 786.352,250.191 786.352,246.648C786.352,240.449 788.848,234.895 792.875,230.867C796.902,226.84 802.539,224.344 808.656,224.344C814.859,224.344 820.414,226.84 824.441,230.867C828.469,234.895 830.965,240.531 830.965,246.648C830.965,252.852 828.469,258.406 824.441,262.434C820.414,266.461 814.777,268.957 808.656,268.957C807.449,268.957 806.324,268.875 805.113,268.715C803.906,270.004 802.699,271.289 801.41,272.578C783.375,290.699 758.168,301.973 730.387,301.973C702.605,301.973 677.402,290.699 659.203,272.5C656.949,270.242 654.855,267.91 652.84,265.414ZM668.543,150.18C665.402,153.965 660.008,154.93 655.738,152.516L655.578,152.434C652.922,150.906 651.23,148.488 650.668,145.512C650.102,142.449 650.828,139.633 652.84,137.297C654.855,134.879 657.027,132.465 659.281,130.289C677.402,111.93 702.605,100.656 730.387,100.656C758.168,100.656 783.375,111.93 801.57,130.129C802.859,131.418 804.066,132.707 805.277,133.996C806.402,133.832 807.609,133.754 808.82,133.754C815.02,133.754 820.574,136.25 824.602,140.277C828.629,144.301 831.125,149.938 831.125,156.059C831.125,162.258 828.629,167.816 824.602,171.84C820.574,175.867 814.938,178.363 808.82,178.363C802.617,178.363 797.062,175.867 793.035,171.84C789.012,167.816 786.512,162.18 786.512,156.059C786.512,152.516 787.32,149.133 788.848,146.152L787.32,144.543C772.824,130.051 752.691,121.031 730.547,121.031C708.402,121.031 688.352,130.051 673.777,144.543C671.844,146.316 670.152,148.246 668.543,150.18ZM708.082,359.867C708.082,353.668 710.578,348.113 714.605,344.086C718.629,340.059 724.266,337.562 730.387,337.562C736.586,337.562 742.145,340.059 746.172,344.086C750.195,348.113 752.691,353.75 752.691,359.867C752.691,366.07 750.195,371.625 746.172,375.652C742.145,379.68 736.508,382.176 730.387,382.176C724.188,382.176 718.629,379.68 714.605,375.652C710.578,371.625 708.082,366.07 708.082,359.867ZM746.172,26.895C750.195,30.922 752.691,36.559 752.691,42.68C752.691,48.879 750.195,54.434 746.172,58.461C742.145,62.488 736.508,64.984 730.387,64.984C724.188,64.984 718.629,62.488 714.605,58.461C710.578,54.434 708.082,48.797 708.082,42.68C708.082,36.477 710.578,30.922 714.605,26.895C718.629,22.871 724.266,20.371 730.387,20.371C736.586,20.371 742.145,22.871 746.172,26.895ZM555.969,185.531C559.996,181.504 565.633,179.008 571.75,179.008C577.953,179.008 583.508,181.504 587.535,185.531C591.562,189.559 594.059,195.195 594.059,201.312C594.059,207.516 591.562,213.07 587.535,217.098C583.508,221.125 577.871,223.621 571.75,223.621C565.551,223.621 559.996,221.125 555.969,217.098C551.941,213.07 549.445,207.434 549.445,201.312C549.445,195.113 551.941,189.559 555.969,185.531Z" style="fill:rgb(56,182,255);"/>
        </g>
    </g>
</svg>
